<svg width="145" height="127" viewBox="0 0 145 127" fill="none" xmlns="http://www.w3.org/2000/svg">
<g clip-path="url(#clip0_1_11179)">
<path d="M91.9751 125.699C126.421 119.631 149.426 86.7885 143.359 52.3426C137.291 17.8967 104.448 -5.10848 70.0026 0.959059C35.5567 7.0266 12.5515 39.8692 18.6191 74.3151C24.6866 108.761 57.5292 131.766 91.9751 125.699Z" fill="#C2937B"/>
<path d="M92.899 68.4437C95.7154 61.8695 92.6691 54.2569 86.0948 51.4405C79.5206 48.6242 71.908 51.6705 69.0917 58.2447C66.2753 64.819 69.3217 72.4315 75.8959 75.2479C82.4701 78.0643 90.0827 75.0179 92.899 68.4437Z" fill="white"/>
<path d="M133.158 53.5977C135.898 68.5777 132.028 83.2277 123.628 94.5677C115.918 104.978 104.398 112.598 90.6484 115.108" stroke="white" stroke-width="1.74" stroke-linecap="round" stroke-linejoin="round"/>
<path d="M29.1398 72.5977C26.2998 57.0577 30.5698 41.8677 39.6298 30.3677C47.3198 20.6077 58.4598 13.4977 71.6498 11.0977" stroke="white" stroke-width="1.74" stroke-linecap="round" stroke-linejoin="round"/>
<path d="M122.862 55.4766C125.062 67.5066 121.952 79.2666 115.192 88.3666C109.012 96.6966 99.7717 102.797 88.7617 104.807" stroke="white" stroke-width="1.74" stroke-linecap="round" stroke-linejoin="round"/>
<path d="M39.4381 70.7167C37.2081 58.4867 40.4581 46.5167 47.4581 37.3567C53.6381 29.2667 62.7281 23.3667 73.5281 21.3867" stroke="white" stroke-width="1.74" stroke-linecap="round" stroke-linejoin="round"/>
<path d="M86.8906 94.5172C95.2106 92.9972 102.191 88.3772 106.841 82.0772C111.891 75.2272 114.221 66.3972 112.571 57.3672" stroke="white" stroke-width="1.74" stroke-linecap="round" stroke-linejoin="round"/>
<path d="M49.7282 68.8358C48.0882 59.8558 50.3782 51.0658 55.3682 44.2358C60.0282 37.8658 67.0282 33.2058 75.3982 31.6758" stroke="white" stroke-width="1.74" stroke-linecap="round" stroke-linejoin="round"/>
<path d="M85.0117 84.2183C90.6417 83.1883 95.3517 80.0583 98.4817 75.7783C101.842 71.1883 103.382 65.2783 102.282 59.2383" stroke="white" stroke-width="1.74" stroke-linecap="round" stroke-linejoin="round"/>
<path d="M60.0313 66.9566C58.9613 61.1266 60.3613 55.4066 63.4913 50.8866C66.6213 46.3666 71.4613 43.0366 77.3013 41.9766" stroke="white" stroke-width="1.74" stroke-linecap="round" stroke-linejoin="round"/>
<path d="M86.6873 67.2788C84.5073 70.4288 80.1873 71.2188 77.0273 69.0388C73.8773 66.8588 73.0873 62.5388 75.2673 59.3788C77.4473 56.2288 81.7673 55.4388 84.9273 57.6188C88.0873 59.7988 88.8673 64.1188 86.6873 67.2788Z" fill="#C2937B"/>
<path d="M55.6483 101.128H7.48828V62.9883" stroke="#C2937B" stroke-width="2.6" stroke-linecap="round" stroke-linejoin="round"/>
<path d="M59.0081 104.819C62.2832 104.819 64.9381 103.037 64.9381 100.839C64.9381 98.6413 62.2832 96.8594 59.0081 96.8594C55.7331 96.8594 53.0781 98.6413 53.0781 100.839C53.0781 103.037 55.7331 104.819 59.0081 104.819Z" fill="white"/>
<path d="M15.07 50.8594H0V65.6094H15.07V50.8594Z" fill="#C2937B"/>
</g>
<defs>
<clipPath id="clip0_1_11179">
<rect width="144.32" height="126.68" fill="white"/>
</clipPath>
</defs>
</svg>
