<svg width="132" height="95" viewBox="0 0 132 95" fill="none" xmlns="http://www.w3.org/2000/svg">
<g clip-path="url(#clip0_1_11156)">
<path d="M36.1717 0H0.761719V18.84H28.6517L35.1517 18.89C45.3117 18.89 52.2917 24.95 52.2917 35.93C52.2917 46.91 45.3117 52.97 35.1517 52.97H24.9917V29H0.761719V71.86H36.1817C60.2017 71.86 76.7317 58.21 76.7317 35.93C76.7317 13.65 60.2017 0 36.1717 0Z" fill="#C2937B"/>
<path d="M131.86 18.27V0H83.5V18.27H104.98H131.86Z" fill="#C2937B"/>
<path d="M107.943 45.5814C107.943 51.4314 105.173 54.5114 100.143 54.5114C96.1431 54.5114 92.5431 52.1514 88.7431 47.4314L75.7031 62.8314C81.6531 69.8114 91.0031 73.5114 102.193 73.5114C121.493 73.5114 131.863 63.8614 131.863 44.1514V28.4414H107.943V45.5914V45.5814Z" fill="#C2937B"/>
<path d="M132 80.4883H0V94.4883H132V80.4883Z" fill="#C2937B"/>
</g>
<defs>
<clipPath id="clip0_1_11156">
<rect width="132" height="94.49" fill="white"/>
</clipPath>
</defs>
</svg>
