<svg width="8" height="10" viewBox="0 0 8 10" fill="none" xmlns="http://www.w3.org/2000/svg">
<path d="M4.36844 9.94C3.92177 9.94 3.4851 9.88667 3.05844 9.78C2.63844 9.67333 2.25844 9.50333 1.91844 9.27C1.57844 9.04333 1.30844 8.75 1.10844 8.39C0.908438 8.03 0.808438 7.59667 0.808438 7.09C0.808438 6.54333 0.918438 6.04333 1.13844 5.59C1.35844 5.13 1.66844 4.72333 2.06844 4.37C2.46844 4.01667 2.94177 3.72333 3.48844 3.49C4.04177 3.25 4.6451 3.08 5.29844 2.98L5.62844 4.3C5.04177 4.40667 4.53177 4.54667 4.09844 4.72C3.67177 4.89333 3.31844 5.09667 3.03844 5.33C2.75844 5.56333 2.54844 5.81333 2.40844 6.08C2.2751 6.35333 2.20844 6.64 2.20844 6.94C2.20844 7.18 2.25177 7.39 2.33844 7.57C2.43177 7.75 2.5551 7.9 2.70844 8.02C2.86177 8.14667 3.03177 8.24667 3.21844 8.32C3.4051 8.4 3.59844 8.45667 3.79844 8.49C3.99844 8.52333 4.18844 8.54 4.36844 8.54C4.82844 8.54 5.2551 8.49667 5.64844 8.41C6.04844 8.32333 6.39844 8.21667 6.69844 8.09L7.09844 9.38C6.93844 9.46 6.71177 9.54333 6.41844 9.63C6.13177 9.71667 5.80844 9.79 5.44844 9.85C5.0951 9.91 4.7351 9.94 4.36844 9.94ZM2.37844 4.4C2.1451 4.30667 1.92844 4.17333 1.72844 4C1.5351 3.82667 1.37844 3.61333 1.25844 3.36C1.1451 3.1 1.08844 2.80333 1.08844 2.47C1.08844 2.05 1.19844 1.68667 1.41844 1.38C1.63844 1.07333 1.93177 0.836666 2.29844 0.669999C2.6651 0.503333 3.0651 0.42 3.49844 0.42C3.71177 0.42 3.90844 0.433333 4.08844 0.46C4.2751 0.486667 4.4651 0.526666 4.65844 0.579999L4.43844 1.91C4.29844 1.87667 4.1551 1.85 4.00844 1.83C3.86177 1.81 3.73177 1.8 3.61844 1.8C3.3851 1.8 3.18177 1.83333 3.00844 1.9C2.84177 1.96667 2.71177 2.06333 2.61844 2.19C2.53177 2.31 2.48844 2.45333 2.48844 2.62C2.48844 2.75333 2.52844 2.88 2.60844 3C2.6951 3.12 2.8051 3.22667 2.93844 3.32C3.07177 3.40667 3.21844 3.48 3.37844 3.54C3.53844 3.59333 3.6951 3.62333 3.84844 3.63L2.37844 4.4Z" fill="#C2937B"/>
</svg>
