<svg width="28" height="20" viewBox="0 0 28 20" fill="none" xmlns="http://www.w3.org/2000/svg">
<path d="M26.4931 9.548C26.0421 9.09702 25.4819 8.82221 24.897 8.72004C25.2564 6.34889 23.914 3.96718 21.5817 3.10046C20.6233 2.74461 19.6051 2.68471 18.6327 2.9102C18.0795 1.21904 16.0748 0 13.6191 0C11.1634 0 9.15868 1.21904 8.60553 2.9102C7.63312 2.68471 6.6149 2.74813 5.65657 3.10046C3.32066 3.96365 1.98183 6.34889 2.3412 8.72004C1.75634 8.82221 1.19614 9.09702 0.745167 9.548C-0.248389 10.5416 -0.248389 12.1623 0.745167 13.1558C0.907236 13.3179 1.09045 13.4482 1.28422 13.5504V15.9216C1.28422 16.7002 1.91136 17.3344 2.68648 17.352L2.17208 18.7613C2.01706 19.1806 2.2355 19.6456 2.65477 19.8007C2.74637 19.8359 2.8415 19.85 2.9331 19.85C3.26429 19.85 3.57433 19.6456 3.69412 19.318L4.41287 17.352H22.8289L23.5476 19.318C23.6674 19.6456 23.9775 19.85 24.3086 19.85C24.4003 19.85 24.4954 19.8324 24.587 19.8007C25.0063 19.6456 25.2247 19.1806 25.0697 18.7613L24.5553 17.352C25.3304 17.3379 25.9575 16.7037 25.9575 15.9216V13.5539C26.1513 13.4518 26.338 13.3214 26.5001 13.1558C27.4937 12.1623 27.4937 10.5416 26.5001 9.548H26.4931ZM4.22261 6.46868C4.61722 5.60901 5.32539 4.95369 6.21325 4.6225C7.10111 4.29484 8.06648 4.33007 8.92615 4.72467C9.78582 5.11928 10.4411 5.82745 10.7723 6.71531C10.9274 7.13458 11.3924 7.34949 11.8117 7.19447C12.231 7.03945 12.4459 6.57438 12.2908 6.15511C11.8786 5.04177 11.1141 4.1222 10.11 3.52325C10.3812 2.46275 11.8751 1.62069 13.6156 1.62069C15.3561 1.62069 16.8499 2.46275 17.1212 3.52325C16.1171 4.12572 15.3526 5.04177 14.9403 6.15511C14.7853 6.57438 15.0002 7.03945 15.4195 7.19447C15.8388 7.34949 16.3038 7.13458 16.4589 6.71531C16.7865 5.82745 17.4418 5.11928 18.305 4.72467C19.1647 4.33007 20.1301 4.29132 21.0179 4.6225C21.9058 4.95016 22.614 5.60549 23.0086 6.46868C23.3644 7.24732 23.4278 8.10699 23.1988 8.92086C22.8606 9.06532 22.5435 9.27671 22.2687 9.55152C21.6521 10.1681 21.2927 10.9714 21.2399 11.8381H5.99481C5.94548 10.9749 5.58611 10.1681 4.96602 9.55152C4.6912 9.27671 4.37411 9.06532 4.03588 8.92086C3.80335 8.10699 3.86676 7.24732 4.22614 6.46868H4.22261ZM1.8867 10.6931C2.41871 10.161 3.28895 10.161 3.82096 10.6931C4.18386 11.056 4.38468 11.5422 4.38116 12.0495L4.37411 12.6203C4.36707 13.0254 4.75815 13.4518 5.24083 13.4518H21.9904C22.4695 13.4518 22.8641 13.0254 22.8606 12.6203L22.8535 12.0566C22.8535 11.5422 23.0508 11.056 23.4137 10.6931C23.9458 10.161 24.816 10.161 25.348 10.6931C25.7109 11.056 25.7109 11.6479 25.348 12.0108C25.119 12.2398 24.7491 12.2398 24.52 12.0108C24.2029 11.6937 23.6921 11.6937 23.375 12.0108C23.0579 12.3278 23.0579 12.8387 23.375 13.1558C23.6498 13.4306 23.981 13.6174 24.3298 13.716V15.7348H2.89787V13.7195C3.2502 13.6209 3.58138 13.4341 3.85619 13.1593C4.17329 12.8422 4.17329 12.3314 3.85619 12.0143C3.5391 11.6972 3.02823 11.6972 2.71114 12.0143C2.48213 12.2433 2.11219 12.2433 1.88318 12.0143C1.52028 11.6514 1.52028 11.0595 1.88318 10.6966L1.8867 10.6931Z" fill="#C2937B"/>
</svg>
