<svg width="94" height="80" viewBox="0 0 94 80" fill="none" xmlns="http://www.w3.org/2000/svg">
<path d="M39.2294 56.6301C39.8772 54.8634 37.8897 53.2292 37.4554 51.7717C37.3523 51.4184 37.4554 51.0135 37.3302 50.6234C37.2493 50.351 34.9231 47.9587 35.2323 47.7305L59.7448 48.0912C60.1276 48.4592 58.2652 50.1596 58.1475 50.5792C58.0297 50.9988 58.1622 51.4478 58.0297 51.9116C57.7794 52.7802 56.6163 54.0389 56.3734 55.1578C55.7551 58.0581 58.1548 56.2767 58.2873 56.4387C58.0591 57.7563 59.1044 57.9035 60.1865 57.6974C61.2686 57.4913 61.6661 56.0559 62.5568 55.5259C62.2697 57.1674 63.4033 56.9392 64.5516 56.4313C64.824 58.1685 62.4611 57.0791 62.0488 57.1821C61.5262 57.3146 61.1361 58.4041 59.6418 58.4335C58.4787 58.4556 58.1916 57.7269 57.6175 57.5576C57.4334 57.506 56.4986 57.3514 56.4765 57.6974C59.5902 58.8678 62.7629 61.7166 62.6451 65.3235C62.5936 66.8767 61.6587 68.7244 60.6502 69.8653C60.1276 70.4616 59.4283 70.8959 58.8468 71.4185C58.567 71.6762 58.6995 71.6246 58.9277 71.8602L84.802 62.5999C84.8462 62.276 84.4045 62.438 84.2132 62.4674C82.9102 62.6735 81.5411 63.2919 80.1498 63.4906C76.8741 63.9544 73.6794 63.8071 70.4552 63.152V62.968C72.1998 63.2698 77.0361 63.3876 78.6629 62.9164C80.9522 62.2613 83.8083 59.6849 81.7104 57.3367C83.028 62.6809 76.1675 63.0637 72.5384 62.7839C69.8001 62.5705 64.478 60.6713 65.2215 57.1085C65.2583 56.9319 65.9134 55.548 65.9944 55.5185C66.9366 55.2388 65.9723 56.2767 65.8987 56.8803C65.6705 58.8457 67.047 60.0235 68.5708 60.9437C69.2333 61.3412 69.8663 61.6356 70.4037 61.8638C70.9411 62.092 71.1325 61.8564 71.4195 61.8785C71.5594 61.8932 71.4563 62.2392 71.795 62.2539C74.2683 62.357 78.685 62.2687 80.3412 60.0603C83.1311 56.3503 76.6533 53.4574 73.7088 53.1556V52.7949C77.3084 52.7949 82.3066 53.8328 84.5002 56.9834C85.5602 58.5071 85.3615 59.5598 84.6033 61.1498C85.6339 60.9584 85.9504 59.0666 85.7958 58.2421C84.9345 53.6488 76.322 52.103 72.5163 52.4342C70.4994 52.6109 68.3941 54.0021 66.2594 53.8917C67.1501 52.7213 68.4015 51.8306 69.3437 50.7117C69.675 50.3142 70.7129 48.5402 70.8307 48.4666C70.919 48.4151 72.4354 48.6506 72.8991 48.6359C74.1873 48.577 75.77 47.8041 76.9845 48.1648C81.4601 51.0945 86.2963 53.4648 90.8308 56.2914C91.6626 56.8067 93.3041 57.5576 93.4661 58.5734C93.6427 59.6407 92.222 62.5852 92.2073 63.866L87.3195 63.9691L46.9512 79.2655L6.33996 63.9691C5.51551 63.6526 1.68774 64.1752 1.34176 63.7041C1.19454 63.5127 0.19343 59.4199 0.171346 59.0445C0.141902 58.4924 0.303846 58.1612 0.701346 57.7931L17.7718 48.1721C18.7508 47.9145 20.0537 48.5623 21.1284 48.6359C21.8645 48.6874 23.8373 48.3562 24.1907 48.4739C24.4188 48.5549 25.6629 50.5719 26.0383 50.9914C26.6493 51.676 27.378 52.0514 27.9448 52.6256C28.8429 53.531 30.639 56.608 31.5665 56.9024C32.8105 57.2926 33.0976 56.9024 33.1197 55.7173C34.1429 56.9171 34.9894 58.4262 36.8518 57.8152C37.5511 57.587 37.3965 57.0717 37.3891 56.446C37.9412 56.8877 38.4638 57.1159 39.1926 56.976C39.2441 56.8656 39.1705 56.7037 39.2 56.6301H39.2294ZM16.6234 63.1667C18.265 63.3876 20.8487 63.1667 22.6154 63.1667C22.7626 63.1667 23.6607 62.6441 23.7932 63.1667C21.5995 63.5201 19.2219 63.8366 16.9841 63.7114C15.7769 63.6452 13.6643 63.3728 12.4865 63.1226C10.6609 62.7324 8.82801 61.5399 6.90676 61.8049C9.74079 62.9091 12.5822 64.0353 15.4457 65.0659C18.0368 66.0007 22.5565 67.8926 25.0519 68.3563C25.972 68.5256 26.3622 67.7012 26.318 66.8767C26.2886 66.332 25.3095 66.2289 25.6408 65.1101C25.9058 64.2341 27.2382 64.3003 27.562 64.0353C27.6357 63.9691 28.3644 62.3128 28.3202 62.1877C28.2319 61.9006 27.5694 62.0184 27.7976 61.4589C27.8565 61.3117 28.9459 60.5388 29.233 60.1707C29.8145 59.4199 30.2194 58.4188 30.1458 57.4471C30.0943 56.7257 29.2036 54.8707 28.6883 54.3555C28.4969 54.1641 28.357 53.9506 28.0626 53.8917C24.9783 53.0526 22.8141 52.0662 19.509 52.2576C15.8284 52.4784 7.43676 54.856 8.65871 59.8616C8.90162 60.8553 9.92482 62.3128 11.0732 62.1656C7.77537 59.2727 9.77023 56.4755 12.884 54.7162C14.9598 53.5458 17.1461 53.001 19.509 52.8023L21.0622 52.9863C18.1619 53.2439 15.0629 54.4217 13.7305 57.1821C12.2509 60.237 16.41 61.9963 18.795 62.2466C22.5933 62.6441 29.8513 61.0394 28.6957 55.8939L29.3434 57.3441C29.4907 58.1833 29.1005 59.0592 28.6073 59.7144C26.0457 63.0637 16.7559 63.9323 13.7084 60.9878C12.803 60.1119 12.7073 59.5598 12.722 58.3452C12.722 58.2569 13.1416 56.6006 12.538 57.1674C12.4055 57.2926 12.0301 58.7942 12.0301 59.0739C12.0301 61.0982 14.82 62.9164 16.6234 63.1594V63.1667ZM56.1158 57.3588C55.8876 57.057 55.7625 56.4387 55.5563 56.1957C55.2398 55.8277 52.6193 55.2167 51.9494 55.0842C48.4602 54.3996 44.5 54.3923 41.0476 55.2683C40.8194 55.3271 40.0023 55.4523 39.9508 55.6657C39.8772 55.9823 40.0097 56.4681 39.9582 56.8141C44.1172 55.5848 48.0922 55.4228 52.3395 56.3282C53.6351 56.6006 54.8276 57.1159 56.1158 57.3588ZM41.2243 57.3588C36.6751 58.8531 31.6033 63.2182 34.9011 68.3121C37.0652 71.6541 42.9615 73.3619 46.7525 73.5238C52.0157 73.752 61.3863 71.367 60.8343 64.6169C60.5693 61.4148 56.9329 58.6544 54.1651 57.5796C50.1975 56.0338 45.2434 56.0338 41.2243 57.3514V57.3588ZM81.7104 56.9981C81.4527 56.8656 81.2245 57.1159 81.3497 57.1748C81.6073 57.3073 81.8355 57.057 81.7104 56.9981ZM35.9611 58.2716C35.8507 58.1612 34.2975 58.0507 33.9662 58.1906C33.0166 58.5807 30.4329 61.7092 29.9323 62.6882C28.8502 64.7714 30.0869 63.866 30.558 65.0438C31.1763 66.597 28.8208 66.7957 28.4233 67.1712C27.9963 67.5687 27.4884 68.9673 28.2025 69.3869C30.1752 70.5499 33.7086 71.0137 35.8654 72.0737C36.2261 71.4774 35.0483 71.0578 34.5919 70.6235C30.8598 67.0828 30.8377 63.2403 34.5919 59.7217C34.879 59.4567 36.3365 58.6691 35.9611 58.2716ZM84.3456 61.3559V61.5399C84.4634 61.481 84.4634 61.4221 84.3456 61.3559ZM83.985 61.7239L83.7126 61.9963C83.7126 62.1877 84.169 61.8859 83.985 61.7239ZM51.9347 74.0685C48.4013 74.547 44.8975 74.4513 41.4009 73.7962C41.3788 74.1716 41.7395 74.1937 41.9825 74.3041C42.8584 74.6869 46.377 76.0634 47.1279 76.0707C47.7609 76.0855 50.8379 74.8709 51.5666 74.5102C51.8243 74.3851 52.023 74.5544 51.9273 74.0685H51.9347Z" fill="#040404"/>
<path d="M29.2391 53.0046C28.7607 52.2391 28.1865 51.2232 27.5976 50.5607C26.6186 49.4418 25.2421 48.9118 24.9182 47.2482C24.8151 46.7109 24.9697 46.1293 24.7562 45.6067C24.5133 45.0031 22.4595 44.451 21.7897 44.4731C21.6866 44.9589 21.9148 44.7822 22.1504 44.9221C22.5332 45.1503 24.0496 45.7392 24.1305 46.041C24.2189 46.3649 23.7404 47.3513 24.1452 47.9181C19.2354 47.4764 12.0804 46.4753 8.99608 42.0954C8.01705 40.7042 8.48816 39.416 9.22427 37.9879C10.4389 35.6397 14.0384 33.1149 16.1658 31.4954C17.4393 30.5238 20.715 28.6541 21.5909 27.6603C22.8791 26.1881 23.203 24.3036 25.1464 22.6842C26.8394 21.2782 28.0098 21.5359 29.3937 20.7629C29.99 20.4317 30.8733 19.2097 31.499 18.6945C32.4412 17.9216 35.9304 15.8457 36.9389 17.0603C37.0714 17.2222 37.8075 19.5336 37.8958 19.9164C38.2418 21.4181 38.2639 23.1774 38.757 24.6864C39.0589 23.7221 37.8001 17.8847 38.227 17.5829C38.5068 17.3842 39.817 17.3253 40.1189 17.5093C40.2661 17.5977 41.4365 19.9606 41.8561 20.4906C42.894 21.8009 45.3747 24.1049 47.1045 24.0975C48.8344 24.0902 51.5433 21.7788 52.6107 20.3802C53.0744 19.7766 54.1565 17.3548 54.3037 17.2664C54.6571 17.0456 56.1587 17.1413 56.4973 17.6492C58.0726 20.0121 57.1966 21.9628 54.7307 23.0449C54.5172 21.1089 49.8797 22.2425 50.9176 23.9577C51.1311 24.311 51.8819 24.2816 51.9187 24.3184C52.1837 24.6275 50.314 27.2407 50.0343 27.7928C46.3758 35.0067 50.3434 40.7999 52.6475 47.5574L38.3007 47.1967C38.1976 42.8389 37.0345 37.9291 34.1269 34.5724C33.3761 33.7038 31.0352 31.4218 29.8427 32.1138C29.2907 32.4377 28.2086 33.8584 27.5829 34.3957C26.8026 35.0656 22.1577 38.5179 21.4364 38.091C21.3848 38.0616 21.2818 37.7156 21.1419 37.5684C19.1102 35.441 16.3277 34.5282 13.4127 34.4841L13.9059 35.0214C15.9818 35.1539 19.0146 35.9563 20.4941 37.48C20.9358 37.9364 21.2082 38.6652 21.5836 39.1142C23.1662 41.006 27.1191 42.8684 29.3864 44.0241C30.3801 44.532 32.8534 45.3638 33.4791 45.9232C34.2373 46.6004 34.6054 48.1168 35.1059 49.0149C35.6065 49.9129 39.1546 55.6988 38.6466 56.2729L36.8284 54.867C35.4004 52.5409 33.7441 49.8835 31.8376 47.9181C31.5579 47.631 31.1089 46.9759 30.6598 47.285C31.3518 48.242 31.8891 49.3093 32.5811 50.2663C33.9944 52.2391 34.7232 53.3506 35.923 55.5442C36.188 56.0227 37.1523 57.0459 36.188 57.1857C35.1796 57.3403 34.2668 55.4117 33.7441 54.6314C33.2509 53.91 32.8534 53.0856 32.2866 52.3642C31.9407 51.9225 29.5262 49.037 29.0257 49.5449C29.2244 51.1275 30.7334 52.4157 31.3886 53.9027C31.7125 54.6461 31.8302 55.0142 31.3002 55.7209C30.5273 55.132 29.9384 53.4684 29.2097 52.9972L29.2391 53.0046ZM39.2208 25.2238C38.6687 25.0913 38.9926 25.3047 38.9632 25.5256C38.8601 26.2249 39.0073 26.7181 39.0441 27.4027C39.368 27.4174 39.4269 27.491 39.4048 27.1303C39.368 26.5267 39.0809 25.8863 39.2208 25.2238Z" fill="white"/>
<path d="M72.3308 26.7989C72.9639 27.432 74.9735 28.4331 75.8863 29.1471C77.3658 30.3028 78.367 31.8192 79.6257 32.8498C80.2882 33.3945 81.3335 33.8435 82.0622 34.4103C88.0247 39.011 86.339 44.5171 79.4343 46.4605C76.8064 47.1966 73.884 47.5352 71.1825 47.9253C71.2782 47.4616 71.0353 46.063 71.212 45.7759C71.2929 45.6434 72.6179 45.2164 72.8167 44.9294C72.2057 44.5539 70.8439 45.2385 70.5936 45.7906C70.3433 46.3427 70.52 46.9831 70.3801 47.5794C70.0489 49.0074 68.8417 49.5153 68.0025 50.4723C66.4714 52.2242 65.566 54.3516 63.9171 55.9195C64.079 55.4852 63.5711 55.0362 63.5858 54.7712C63.5858 54.646 64.5207 52.7984 64.6679 52.5923C65.301 51.6869 65.3967 52.4819 66.2726 52.4671C66.2285 52.2169 66.361 51.5102 66.2579 51.385C66.1549 51.2599 65.6617 51.6059 65.7279 51.098C65.7574 50.8771 66.9572 49.2282 65.8236 49.5521C65.6102 49.611 63.1957 52.4745 62.9307 52.8426C62.2535 53.7921 60.6708 57.193 59.6256 57.3181C59.1471 57.377 58.757 57.2445 58.8674 56.766C58.9483 56.3906 61.0831 52.3494 61.407 51.8635C62.2829 50.5606 63.6963 48.4848 64.6458 47.2923C65.669 46.0041 67.3179 45.0913 68.0099 43.5749C67.1118 44.2669 65.4408 45.187 64.7121 45.9967C63.7478 47.0714 62.2314 49.4123 61.3407 50.7078C60.001 52.6438 59.0588 55.4337 56.8431 56.2876C56.3867 55.7944 59.4195 50.7299 59.839 49.9349C60.4942 48.713 61.0831 46.6666 62.0989 45.8421C62.8276 45.2459 63.9171 44.9956 64.7636 44.5171C67.0088 43.2437 69.6588 41.8524 71.7788 40.4612C74.1343 38.9153 75.0839 36.7512 77.6456 35.6175L79.5226 34.8667C77.594 34.5796 75.4372 35.6249 74.0754 36.9499C73.4792 37.5241 73.3172 38.4663 72.5517 38.3117C71.4328 38.0835 68.1203 35.3157 67.1707 34.4177C66.5229 33.7994 64.9329 31.5689 64.1379 31.4438C63.3429 31.3187 61.9296 32.8277 61.4511 33.4092C59.7728 35.4482 59.4931 37.848 58.6907 40.2698C57.8883 42.6916 56.556 44.8189 56.8283 47.3953C55.9524 47.2407 54.2446 47.6235 53.5011 47.3659C53.2288 47.2702 53.1625 46.961 53.0447 46.7328C50.7186 42.4339 48.1201 35.2716 49.4378 30.4648C49.666 29.6403 52.235 24.4655 52.684 24.1784C52.846 24.0753 53.2803 24.1784 53.56 24.0606C54.5758 23.6484 56.6811 22.5 57.27 21.5946C58.5656 19.6071 56.6738 18.3778 56.9903 17.1706C57.0124 17.0896 58.3153 16.383 58.3963 16.3682C58.7496 16.3094 62.7908 18.7312 63.6006 19.0845C66.545 20.38 67.605 19.8353 69.7839 22.7062C70.6083 23.7882 71.5727 26.0555 72.3161 26.7989H72.3308Z" fill="white"/>
<path d="M57.5597 6.69398C55.9182 7.41537 55.9991 6.06093 55.2851 5.0819C54.3576 3.81579 52.4805 2.50551 50.8464 2.52759L53.3712 3.89676C54.9318 5.2144 55.2189 7.36384 54.998 9.31454C54.8729 10.4408 54.2251 11.4125 54.1073 12.5093C53.6141 12.605 53.9086 10.4997 53.386 11.0591C53.1725 11.28 52.9443 14.4747 52.8339 15.0562C52.4953 14.909 52.4879 14.5041 52.1051 14.2465C50.736 13.3263 48.5865 14.8869 49.3447 16.6462C49.8673 17.8681 51.9358 17.478 52.4879 16.5652C52.6498 16.3002 52.5173 15.785 52.8412 15.785C52.9001 17.64 52.2965 19.7673 51.0304 21.1438C50.7139 21.4898 48.7043 23.2933 48.4098 23.4258C47.1658 23.9631 46.2236 23.4479 45.2298 22.7633C43.1098 21.2911 41.8658 19.2888 41.5861 16.6977C41.8437 16.4401 43.7208 18.3025 44.8544 16.7934C45.9144 15.3875 44.0447 13.6134 42.521 14.0919C42.0278 14.2465 41.8805 14.6661 41.4021 14.6955C41.483 13.4736 41.2254 12.2663 41.034 11.0665L40.6733 12.0602C40.6439 12.259 40.4304 12.1854 40.3126 12.0676C40.0329 11.8026 39.4808 9.96232 39.4293 9.50593C39.179 7.3712 39.6501 5.42051 41.3211 3.99245C42.1529 3.27843 43.1908 3.08704 43.949 2.35829C41.9615 2.60857 40.0991 3.83787 38.9655 5.45731C38.2736 6.4437 38.5091 7.3712 36.6836 6.71607C38.3178 2.08593 43.5294 -0.21074 48.2111 0.164677C51.7812 0.45176 56.588 3.02079 57.5597 6.69398Z" fill="white"/>
<path d="M72.2359 53.785C74.6209 53.623 81.3195 55.1615 78.8904 58.6212C76.9397 61.3964 68.8645 60.6161 67.7456 57.2594C66.958 54.9039 70.4913 53.9028 72.2359 53.785Z" fill="#040404"/>
<path d="M37.7044 8.90167C38.1019 8.76917 38.8159 8.9532 39 9.38015C39.1472 10.5874 40.428 15.7328 39.8686 16.5204C39.7729 16.6529 38.9337 16.8664 38.7423 16.8664C37.9253 16.8664 37.6897 15.9904 37.6087 15.3058C37.4762 14.2017 37.2775 10.5285 37.3953 9.50529C37.4247 9.24765 37.3953 9.00473 37.7044 8.89431V8.90167Z" fill="white"/>
<path d="M29.2388 53.0009C29.9675 53.472 30.5564 55.1356 31.3293 55.7245C31.8593 55.0252 31.7489 54.6498 31.4177 53.9063L33.7806 54.635C34.3106 55.408 35.216 57.3366 36.2245 57.1893C37.2329 57.0421 36.2245 56.0263 35.9595 55.5478L39.2278 56.6373C39.1983 56.7109 39.272 56.8728 39.2204 56.9832C38.4843 57.1231 37.969 56.9023 37.417 56.4532C37.4243 57.0789 37.5789 57.5942 36.8796 57.8224C35.0172 58.4334 34.1707 56.9317 33.1475 55.7245C33.1254 56.9096 32.8383 57.3071 31.5943 56.9096C30.6668 56.6152 28.8781 53.5382 27.9727 52.6328C28.3775 52.6623 28.9075 52.78 29.2461 52.9935L29.2388 53.0009Z" fill="#F58345"/>
<path d="M57.0208 8.87987C57.006 9.63071 57.0502 10.3963 57.0208 11.1471C56.9766 12.2218 56.822 15.2252 56.5423 16.1158C56.3067 16.8593 55.4749 16.852 54.7903 16.6532C54.0248 16.425 54.4223 15.4975 54.3045 14.9896C54.2603 14.7761 53.8555 14.9896 53.9365 14.6952L54.4885 14.5774C54.9155 13.4658 55.1584 9.98404 55.7326 9.18168C55.8724 8.99029 56.9471 8.80626 57.0208 8.87987Z" fill="white"/>
<path d="M58.8377 13.2388L59.1984 11.428C59.5297 12.3849 59.3972 13.3713 59.1984 14.3283L58.6537 13.7836C58.742 14.8362 58.0574 16.1833 57.0195 16.5072C57.314 14.159 57.4612 11.8034 57.3802 9.42578C59.0512 9.6687 58.8598 11.9212 58.8304 13.2388H58.8377Z" fill="white"/>
<path d="M62.6511 65.3481L64.4693 65.8928L64.6533 65.1641C64.3957 66.4964 65.9415 66.0768 66.1035 66.9749L60.6562 69.8825C61.6647 68.7416 62.6069 66.9013 62.6511 65.3407V65.3481Z" fill="#F58345"/>
<path d="M35.5933 11.9658C35.5712 10.8837 36.1233 9.83844 37.0434 9.24219C36.9183 11.6272 37.1833 13.9607 37.4041 16.3236C36.403 16.0512 35.9393 14.9029 35.77 13.9607C35.689 13.5116 35.6007 12.4369 35.5859 11.9658H35.5933Z" fill="white"/>
<path d="M66.8271 62.0794C66.989 62.1751 67.0185 62.1898 67.1878 62.2634C67.3424 63.2204 68.6968 65.7231 68.1079 66.5181C67.9754 66.6948 67.5706 66.6506 67.5485 66.6286C67.4675 66.5476 67.2614 64.8619 67.1363 64.4055C66.967 63.8166 66.6136 63.2277 66.5032 62.6756C66.437 62.3297 66.2897 61.9911 66.8271 62.0867V62.0794Z" fill="#040404"/>
<path d="M54.0908 23.3828C53.9436 23.6257 51.7132 24.2882 51.566 23.6478C51.1611 21.9473 54.8932 22.0651 54.0908 23.3828Z" fill="#C2937B"/>
<path d="M35.5919 11.9655C35.5993 12.444 35.695 13.5114 35.7759 13.9604C35.2754 13.9604 35.1355 13.5187 35.0619 13.1286C34.9809 12.6943 34.8116 11.7226 35.5919 11.9582V11.9655Z" fill="#F58345"/>
<path d="M66.8269 62.0803C66.7607 62.0361 66.0319 61.5356 66.3779 61.3516C66.6576 61.6313 68.0268 62.0214 68.1004 62.0803C68.6745 62.5956 67.3348 62.3159 67.195 62.257C67.0257 62.1907 66.9889 62.176 66.8343 62.073L66.8269 62.0803Z" fill="#F58345"/>
<path d="M73.7227 52.8203V53.181C73.3988 53.1442 71.1758 53.2693 71.1758 53.0927C72.0076 52.835 72.8541 52.8203 73.7227 52.8203Z" fill="#F58345"/>
<path d="M70.4562 62.992V63.176C69.7201 63.0288 68.9104 63.0362 68.2773 62.543C68.2921 62.1234 70.2796 62.9626 70.4562 62.9994V62.992Z" fill="#F58345"/>
<path d="M66.8045 64.8259C67.2314 65.5325 65.9506 66.4159 66.0978 64.6271C66.1567 64.5682 66.7824 64.7891 66.8045 64.8259Z" fill="#040404"/>
<path d="M37.2274 7.24681C37.5955 7.61487 36.5944 8.42459 36.322 7.69584C36.0717 7.01862 37.1759 7.19529 37.2274 7.24681Z" fill="white"/>
<path d="M58.1103 7.24681C58.4783 7.61487 57.4772 8.42459 57.2048 7.69584C56.9546 7.01862 58.0587 7.19529 58.1103 7.24681Z" fill="white"/>
<path d="M16.6229 63.1697C14.8194 62.9268 12.0296 61.1086 12.0296 59.0843C12.0296 58.8045 12.405 57.3029 12.5375 57.1777C13.1411 56.6109 12.7215 58.2672 12.7215 58.3555C12.7068 59.5701 12.8025 60.1222 13.7079 60.9981C16.7628 63.9426 26.0525 63.074 28.6068 59.7247C29.1074 59.0695 29.4975 58.1936 29.3429 57.3544L28.6951 55.9043C29.8508 61.057 22.5928 62.6544 18.7944 62.2569C16.4094 62.0066 12.2504 60.2473 13.73 57.1925C15.0697 54.432 18.1614 53.2543 21.0617 52.9966L19.5085 52.8126C17.1456 53.0113 14.9593 53.5561 12.8835 54.7265C9.76972 56.4858 7.77486 59.283 11.0726 62.1759C9.92431 62.3231 8.90111 60.8657 8.65819 59.8719C7.44361 54.8737 15.8353 52.4887 19.5085 52.2679C22.8136 52.0691 24.9778 53.0629 28.0621 53.902C28.3492 53.9683 28.489 54.1818 28.6878 54.3658C29.2104 54.8737 30.1011 56.7361 30.1453 57.4575C30.2115 58.4291 29.814 59.4229 29.2325 60.1811C28.9454 60.5491 27.856 61.322 27.7971 61.4693C27.5689 62.0287 28.224 61.9109 28.3197 62.198C28.3639 62.3305 27.6351 63.9794 27.5615 64.0456C27.245 64.318 25.9053 64.2518 25.6403 65.1204C25.3017 66.2393 26.2881 66.3423 26.3175 66.887C26.369 67.7115 25.9789 68.5359 25.0514 68.3666C22.556 67.9029 18.0289 66.0111 15.4451 65.0762C12.5817 64.0456 9.74028 62.9194 6.90625 61.8152C8.8275 61.5502 10.6604 62.7501 12.486 63.1329C13.6638 63.3831 15.7764 63.6555 16.9836 63.7218C19.214 63.8469 21.599 63.5304 23.7926 63.177C23.6601 62.6544 22.7621 63.177 22.6149 63.177C20.8482 63.177 18.2644 63.3979 16.6229 63.177V63.1697ZM15.3568 57.9875C16.8585 60.1884 19.5674 60.343 22.0481 60.0706C24.146 59.8351 28.7393 57.5163 26.1629 55.0872C24.4257 53.453 19.8765 53.6738 17.8007 54.5572C16.7186 55.0136 14.9519 56.3754 15.055 57.6488C15.0844 57.9727 15.2906 57.9065 15.3568 57.9948V57.9875Z" fill="#F58345"/>
<path d="M41.2231 57.3594L43.0413 58.0881C42.1948 58.309 39.7656 59.4205 39.1105 59.9652C38.6541 60.3406 37.2923 62.1515 37.2334 62.7183C36.6666 68.2465 44.3663 69.9542 48.5769 69.7113C51.9851 69.5126 57.7268 67.7533 57.5648 63.5427L60.8331 64.6322C61.3852 71.3823 52.0145 73.7599 46.7513 73.5391C42.953 73.3772 37.0568 71.6694 34.8999 68.3274C31.6022 63.2335 36.674 58.8684 41.2231 57.3741V57.3594Z" fill="#F58345"/>
<path d="M35.9592 58.2723C36.3346 58.6625 34.8771 59.4501 34.5901 59.7225C30.8359 63.2484 30.858 67.0836 34.5901 70.6243C35.0464 71.0586 36.2242 71.4781 35.8635 72.0744C33.7067 71.0144 30.1734 70.5506 28.2006 69.3876C27.4866 68.968 27.9945 67.562 28.4214 67.1719C28.8263 66.8038 31.1819 66.5977 30.5562 65.0445C30.0851 63.8668 28.8484 64.7722 29.9305 62.689C30.4384 61.71 33.0148 58.5815 33.9644 58.1913C34.2882 58.0588 35.8488 58.1619 35.9592 58.2723Z" fill="#F58345"/>
<path d="M60.8361 64.6253L57.5678 63.5358C57.45 60.4073 53.5928 58.4787 50.8839 57.9635C48.5799 57.5218 45.3115 57.485 43.0369 58.0886L41.2188 57.3598C45.2379 56.0422 50.1919 56.0422 54.1596 57.588C56.9347 58.6628 60.5711 61.4232 60.8288 64.6253H60.8361Z" fill="#FDFDFD"/>
<path d="M56.1136 57.3595C54.8181 57.1166 53.6329 56.6013 52.3374 56.3289C48.0974 55.4235 44.115 55.5855 39.956 56.8148C40.0075 56.4614 39.875 55.9756 39.9486 55.6664C40.0001 55.4603 40.8172 55.3278 41.0454 55.2689C44.4978 54.393 48.4581 54.4003 51.9472 55.0849C52.6171 55.2174 55.2376 55.8284 55.5542 56.1964C55.7603 56.432 55.8854 57.0577 56.1136 57.3595Z" fill="#FDFDFD"/>
<path d="M51.9343 74.0692C52.03 74.5551 51.8312 74.3858 51.5736 74.5109C50.8449 74.8716 47.7753 76.0862 47.1349 76.0715C46.384 76.0567 42.8581 74.6876 41.9894 74.3048C41.7465 74.1944 41.3785 74.1723 41.4079 73.7969C44.9044 74.452 48.4083 74.5477 51.9417 74.0692H51.9343Z" fill="#F58345"/>
<path d="M81.7092 56.9999C81.8345 57.0663 81.6059 57.3096 81.3479 57.1769C81.2225 57.1105 81.4511 56.8672 81.7092 56.9999Z" fill="#FDFDFD"/>
<path d="M83.9838 61.7266C84.1681 61.8888 83.7109 62.1911 83.7109 61.9994L83.9838 61.7266Z" fill="#FDFDFD"/>
<path d="M84.3438 61.3555C84.4617 61.4145 84.4617 61.4734 84.3438 61.5398V61.3555Z" fill="#FDFDFD"/>
<path d="M33.7805 54.6361L31.4176 53.9073C30.7625 52.4204 29.2534 51.1395 29.0547 49.5495C29.5552 49.0342 31.9697 51.9272 32.3157 52.3688C32.8825 53.0829 33.28 53.9147 33.7732 54.6361H33.7805Z" fill="#FDFDFD"/>
<path d="M39.2201 25.2205C39.0802 25.883 39.3673 26.5235 39.4041 27.1271C39.4262 27.4878 39.36 27.4068 39.0434 27.3994C39.0066 26.7075 38.8594 26.2216 38.9625 25.5223C38.9919 25.3015 38.668 25.088 39.2201 25.2205Z" fill="#F58345"/>
<path d="M15.3575 57.9859C15.2986 57.8976 15.0851 57.9638 15.0557 57.6399C14.9453 56.3738 16.7193 55.012 17.8014 54.5483C19.8772 53.6723 24.4264 53.4514 26.1636 55.0783C28.74 57.5074 24.154 59.8262 22.0488 60.0617C19.5681 60.3341 16.8592 60.1795 15.3575 57.9785V57.9859Z" fill="#040404"/>
<path d="M57.5642 63.5348C57.7261 67.7528 51.9771 69.5047 48.5762 69.7034C44.3657 69.9537 36.666 68.2386 37.2328 62.7104C37.2917 62.1436 38.6535 60.3327 39.1098 59.9573C39.7723 59.4126 42.2015 58.3084 43.0407 58.0803C45.3153 57.4766 48.5762 57.5134 50.8876 57.9551C53.5965 58.4704 57.4537 60.4064 57.5715 63.5275L57.5642 63.5348Z" fill="#040404"/>
</svg>
