<svg width="50" height="105" viewBox="0 0 50 105" fill="none" xmlns="http://www.w3.org/2000/svg">
<g clip-path="url(#clip0_1_11041)">
<path d="M2.94975 5.07318C2.67664 5.00613 2.0674 5.81495 2.0674 5.81495C2.0674 5.81495 1.25227 5.94905 1.11782 6.22145C0.983365 6.49385 0.710255 7.10152 0.710255 7.10152L0.983365 8.11569L0.0337849 7.77623C0.0337849 7.77623 -0.033442 8.11569 0.0337849 8.3839C0.101012 8.6563 1.47496 9.39807 1.47496 9.39807C1.47496 9.39807 2.13463 11.4935 2.54219 11.967C2.94975 12.4406 6.8153 17.8509 7.35731 18.798C7.89933 19.7451 8.50857 20.8263 9.73126 21.9075C10.2061 23.5964 12.3069 27.7914 12.3069 27.7914C12.3069 27.7914 12.0338 29.6186 12.3069 30.0921C10.0716 30.0251 9.39093 30.5657 8.50857 30.4316C7.62622 30.2975 6.13462 29.6689 5.79009 29.43C5.44555 29.1911 4.94555 29.3923 4.85311 29.8323C4.76068 30.2723 4.50437 30.7082 4.50437 30.7082C4.50437 30.7082 3.97076 30.8549 3.95395 31.0183C3.93715 31.1817 3.89933 31.7307 3.89933 31.7307C3.89933 31.7307 3.3321 31.802 3.27748 32.2043C3.22286 32.6066 2.50857 32.4599 2.25227 32.6234C1.99597 32.7868 2.01278 33.1346 2.23547 33.5914C2.45395 34.0482 2.76908 34.4673 2.91194 34.6894C3.05899 34.9073 2.85731 35.5862 2.85731 35.5862C2.85731 35.5862 2.29009 35.9718 2.21446 36.5376C2.14303 37.1033 2.14303 38.6036 2.14303 38.9347C1.8321 39.2993 1.94135 39.7561 2.21446 40.1416C2.48757 40.5272 4.48336 42.8237 6.0632 42.8237C6.3153 43.3266 6.26908 43.5781 6.5674 43.6703C6.86572 43.7625 5.97496 44.3534 6.15563 45.0867C6.33631 45.8159 7.18505 45.0867 7.18505 45.0867L8.67244 45.6357C9.13042 45.2921 11.6052 45.0868 11.6472 42.9872C11.6892 40.8876 10.9624 41.2061 10.9624 41.2061C10.9624 41.2061 12.6808 40.7702 13.3447 39.446C14.0086 38.1217 14.3279 37.4805 14.3279 37.4805C14.3279 37.4805 16.3447 38.8048 18.0842 39.4921C19.8237 40.1752 21.059 40.611 21.975 41.8431C22.8909 43.0752 24.2859 43.9678 24.975 44.1941C24.7901 45.1287 24.5632 45.4513 24.5632 45.4513C24.5632 45.4513 20.2817 42.8489 19.7103 43.3057C19.1388 43.7625 18.3825 44.8353 18.3153 44.8353C18.2481 44.8353 15.3153 44.4456 15.017 44.7682C14.7187 45.0868 11.9498 45.9542 11.3069 46.0925C10.664 46.2308 8.55899 46.5032 8.74387 47.2324C8.92874 47.9616 8.88252 49.2859 8.88252 49.2859C8.88252 49.2859 6.95815 50.1073 7.73967 50.9287C8.52118 51.7501 10.5338 54.1263 11.954 54.0802C13.3741 54.0341 14.9287 55.2201 16.2145 54.9938C17.496 54.7633 19.7859 56.318 20.7481 55.769C21.7103 55.2201 23.3573 54.3065 23.3573 54.3065C23.3573 54.3065 20.2439 60.7477 19.0506 64.1255C17.8615 67.5074 17.8153 67.872 15.8909 70.4284C13.9666 72.9848 11.5422 75.5453 10.3027 79.6565C9.0674 83.7676 7.55479 90.0245 7.55479 90.0245L7.3237 91.3949L5.90353 92.5809L4.89513 92.8072C4.89513 92.8072 3.84051 93.0335 3.75227 94.8187C3.66404 96.604 3.38673 98.6994 2.51698 99.4789C1.64723 100.254 -0.0754588 102.676 0.00857478 103.179C0.0926084 103.682 0.227062 104.822 0.777482 104.96C1.3279 105.099 3.20605 104.73 3.79849 104.185C4.39513 103.636 7.18925 101.947 7.68925 100.715C8.19345 99.4831 10.7103 96.2394 11.08 94.5044C11.4455 92.7694 10.9413 92.0822 12.0422 89.7982C13.143 87.5142 16.9876 79.5685 17.6766 78.2861C18.3615 77.0079 20.3321 75.6836 20.8363 74.9042C21.3405 74.1289 22.8951 72.1173 22.9413 71.979C22.9876 71.8407 24.9792 68.7814 24.9792 68.7814C24.9792 68.7814 25.4582 72.7082 25.7817 74.3552C26.101 75.9979 24.8195 77.6449 25.2313 81.4334C25.643 85.226 28.664 96.5076 28.664 96.5076C28.664 96.5076 28.8909 99.6591 28.664 100.162C28.4329 100.665 27.6556 101.759 27.6556 101.759C27.6556 101.759 26.0968 103.175 26.5128 103.401C26.9245 103.632 31.5044 103.494 31.7775 103.401C32.0506 103.309 33.1514 98.7874 32.7859 97.6014C32.4203 96.4154 31.5044 91.8014 31.5044 89.6976C31.5044 87.5938 31.3027 83.2522 30.8363 81.777C30.3699 80.3019 30.601 78.2023 30.9161 76.6517C31.2313 75.1011 32.3195 68.8862 32.3195 64.5362C32.3195 60.1861 32.3993 55.0189 32.3993 55.0189C32.3993 55.0189 34.3447 56.536 35.0464 56.2258C35.7481 55.9157 40.2649 56.7706 41.122 55.9912C41.9792 55.2159 45.6388 53.506 45.9497 52.2614C46.2607 51.0167 49.4539 48.8417 49.4539 47.3665C49.4539 45.8914 50.7018 42.3963 49.4539 42.1616C48.2061 41.9269 36.059 44.6467 36.059 44.6467L34.0338 43.0165C34.0338 43.0165 33.101 40.2967 32.164 38.3564C31.2313 36.416 27.8027 31.5212 26.3993 30.5866C24.996 29.6563 21.8027 29.8868 21.8027 29.8868C21.8027 29.8868 20.3237 26.8569 20.1682 25.8469C20.0128 24.8369 19.4666 20.5665 19.08 18.8567C18.6892 17.1468 17.7523 15.6381 17.5716 14.515C17.3867 13.3877 16.5926 12.5663 15.6808 11.3174C14.7649 10.0686 11.164 4.67925 11.0422 3.95005C10.9203 3.22085 11.4077 1.72894 11.2271 1.42301C11.0422 1.11708 10.5548 1.54454 10.5548 1.54454L10.2817 2.3366C10.2817 2.3366 9.58 1.93429 9.60942 1.31405C9.63883 0.693814 10.0968 0.417223 10.0968 0.417223C10.0968 0.417223 9.94555 0.0526249 9.8237 -0.0102368C9.70185 -0.0730985 9.05899 0.203493 9.05899 0.203493C9.05899 0.203493 8.53799 0.203493 8.35731 0.475894C7.99177 0.413032 7.83631 0.840492 7.68505 1.23862C7.53378 1.63255 7.13462 1.69541 7.34891 2.54614C7.5632 3.39687 8.26488 3.58126 9.05899 5.16538C9.85311 6.74949 10.1598 8.72754 11.3195 11.0744C12.4792 13.417 13.3951 15.0011 13.9161 15.7345C14.4371 16.4679 15.1052 20.7593 15.7187 22.0081C15.3237 23.6509 15.475 26.7898 15.475 26.7898C15.475 26.7898 13.2481 21.7064 13.0926 21.1281C12.9413 20.5497 12.8489 19.787 12.2397 19.2715C11.6304 18.7561 8.11782 15.0095 7.38673 14.2468C6.65563 13.4841 4.27328 10.6846 4.21026 10.4709C4.14723 10.2572 4.69765 9.31425 4.8195 8.76526C4.94135 8.21626 5.39933 7.05961 5.70605 6.60281C6.01278 6.14602 6.04219 5.3833 5.94975 5.23243C5.85731 5.08156 5.18504 5.44616 5.18504 5.44616C5.18504 5.44616 4.42034 7.12247 4.0842 7.18114C3.74807 7.244 3.13883 6.35975 3.04639 6.08316C2.95395 5.81076 3.35311 5.35396 3.35311 5.35396L2.96656 5.06061L2.94975 5.07318Z" fill="white"/>
</g>
<defs>
<clipPath id="clip0_1_11041">
<rect width="50" height="105" fill="white"/>
</clipPath>
</defs>
</svg>
