<svg width="125" height="104" viewBox="0 0 125 104" fill="none" xmlns="http://www.w3.org/2000/svg">
<g clip-path="url(#clip0_1_11165)">
<path d="M108.991 61.5013H94.1711V41.5713C94.1711 38.8113 92.7511 36.2513 90.4111 34.7913C85.0811 31.4613 78.1711 35.2913 78.1711 41.5713V92.0713C78.1711 94.8313 76.7511 97.3913 74.4111 98.8513C69.0811 102.181 62.1711 98.3513 62.1711 92.0713V31.5713C62.1711 25.2913 55.2611 21.4613 49.9311 24.7913C47.5911 26.2513 46.1711 28.8213 46.1711 31.5713V82.0713C46.1711 88.3513 39.2611 92.1813 33.9311 88.8513C31.5911 87.3913 30.1711 84.8213 30.1711 82.0713V64.1413H15.1211" stroke="#C2937B" strokeWidth="7.37" stroke-linecap="round" stroke-linejoin="round"/>
<path d="M14.0703 48.0919C14.0703 23.5619 35.5903 3.67188 62.1503 3.67188C88.7103 3.67188 110.23 23.5619 110.23 48.0919" stroke="#C2937B" strokeWidth="7.34" stroke-linecap="round" stroke-linejoin="round"/>
<path d="M110.32 75.9219V49.9219C116.17 49.9219 120.9 54.6619 120.9 60.5019V65.3319C120.9 71.1819 116.16 75.9119 110.32 75.9119V75.9219Z" stroke="#C2937B" strokeWidth="7.34" stroke-linecap="round" stroke-linejoin="round"/>
<path d="M14.2519 49.9219V75.9219C8.41187 75.9219 3.67188 71.1819 3.67188 65.3419V60.5119C3.67188 54.6719 8.41187 49.9319 14.2519 49.9319V49.9219Z" stroke="#C2937B" strokeWidth="7.34" stroke-linecap="round" stroke-linejoin="round"/>
</g>
<defs>
<clipPath id="clip0_1_11165">
<rect width="124.57" height="103.76" fill="white"/>
</clipPath>
</defs>
</svg>
