<svg width="22" height="26" viewBox="0 0 22 26" fill="none" xmlns="http://www.w3.org/2000/svg">
<g clip-path="url(#clip0_1_10759)">
<path d="M18.4367 0.996016C16.4396 0.350598 13.7983 0 11 0C8.20168 0 5.5604 0.354582 3.56332 0.996016C0.620059 1.94422 0 3.21514 0 4.11155V6.82868C0 7.7251 0.620059 8.99602 3.56332 9.94422C4.82357 10.3506 6.33748 10.6414 7.98426 10.8008C8.37079 13.6773 8.47548 15.8526 8.29026 18.3625C5.84224 18.9801 4.29209 20.3785 4.29209 22.0199C4.29209 24.255 7.23938 26.004 11.004 26.004C14.7687 26.004 17.716 24.255 17.716 22.0199C17.716 20.3785 16.1618 18.9761 13.7097 18.3625C13.5165 15.8526 13.6212 13.749 14.0238 10.8008C15.6706 10.6414 17.1845 10.3506 18.4447 9.94422C21.388 8.99602 22.0081 7.7251 22.0081 6.82868V4.11155C22.0081 3.21514 21.388 1.94422 18.4447 0.996016H18.4367ZM4.0948 2.60956C5.92679 2.01992 8.37884 1.69323 11 1.69323C13.6212 1.69323 16.0732 2.01992 17.9052 2.60956C19.6486 3.17131 20.2848 3.81673 20.2848 4.11155C20.2848 4.40637 19.6526 5.05179 17.9052 5.61355C16.0732 6.20319 13.6212 6.52988 11 6.52988C8.37884 6.52988 5.92679 6.20319 4.0948 5.61355C2.35139 5.05179 1.71523 4.40637 1.71523 4.11155C1.71523 3.81673 2.34736 3.17131 4.0948 2.60956ZM15.9967 22.0199C15.9967 23.0996 13.8587 24.3068 11 24.3068C8.14129 24.3068 6.00329 23.0996 6.00329 22.0199C6.00329 21.3267 6.8448 20.6255 8.1131 20.1873C8.05271 20.7211 7.97621 21.2709 7.89568 21.8566C7.85139 22.1633 7.98023 22.4701 8.23389 22.6574C8.73719 23.0279 9.87262 23.2151 11.004 23.2151C12.1354 23.2151 13.2668 23.0279 13.7742 22.6574C14.0278 22.4701 14.1567 22.1633 14.1124 21.8566C14.0278 21.2669 13.9553 20.7171 13.8909 20.1873C15.1592 20.6255 16.0007 21.3307 16.0007 22.0199H15.9967ZM12.3126 21.4223C11.612 21.5498 10.3799 21.5498 9.68338 21.4223C10.2149 17.4741 10.231 14.7928 9.72767 10.9123C10.1464 10.9283 10.5732 10.9363 11 10.9363C11.4268 10.9363 11.8536 10.9283 12.2723 10.9123C11.761 14.8287 11.7771 17.4303 12.3166 21.4183L12.3126 21.4223ZM17.9052 8.33068C16.0732 8.92032 13.6212 9.24701 11 9.24701C8.37884 9.24701 5.92679 8.92032 4.0948 8.33068C2.35139 7.76892 1.71523 7.12351 1.71523 6.82868V6.43825C2.19436 6.71315 2.80234 6.98008 3.56332 7.22709C5.5604 7.87251 8.20168 8.22311 11 8.22311C13.7983 8.22311 16.4396 7.86853 18.4367 7.22709C19.1977 6.98008 19.8056 6.71315 20.2848 6.43825V6.82868C20.2848 7.12351 19.6526 7.76892 17.9052 8.33068Z" fill="#C2937B"/>
</g>
<defs>
<clipPath id="clip0_1_10759">
<rect width="22" height="26" fill="white"/>
</clipPath>
</defs>
</svg>
