<svg width="136" height="137" viewBox="0 0 136 137" fill="none" xmlns="http://www.w3.org/2000/svg">
<g clip-path="url(#clip0_1_11138)">
<path d="M32 89.1102V65.4502C32 62.2302 27 62.2302 27 65.4502V89.1102C27 92.3302 32 92.3302 32 89.1102Z" fill="#C2937B"/>
<path d="M44.8906 97.1694V57.3994C44.8906 54.1794 39.8906 54.1794 39.8906 57.3994V97.1694C39.8906 100.389 44.8906 100.389 44.8906 97.1694Z" fill="#C2937B"/>
<path d="M57.7812 105.217V49.3369C57.7812 46.1169 52.7812 46.1169 52.7812 49.3369V105.217C52.7812 108.437 57.7812 108.437 57.7812 105.217Z" fill="#C2937B"/>
<path d="M70.6719 113.278V41.2783C70.6719 38.0583 65.6719 38.0583 65.6719 41.2783V113.268C65.6719 116.488 70.6719 116.488 70.6719 113.268V113.278Z" fill="#C2937B"/>
<path d="M83.5586 105.217V49.3369C83.5586 46.1169 78.5586 46.1169 78.5586 49.3369V105.217C78.5586 108.437 83.5586 108.437 83.5586 105.217Z" fill="#C2937B"/>
<path d="M96.4492 97.1694V57.3994C96.4492 54.1794 91.4492 54.1794 91.4492 57.3994V97.1694C91.4492 100.389 96.4492 100.389 96.4492 97.1694Z" fill="#C2937B"/>
<path d="M109.34 89.1102V65.4502C109.34 62.2302 104.34 62.2302 104.34 65.4502V89.1102C104.34 92.3302 109.34 92.3302 109.34 89.1102Z" fill="#C2937B"/>
<path d="M68.1698 132.609C98.7278 132.609 123.5 107.837 123.5 77.2792C123.5 46.7213 98.7278 21.9492 68.1698 21.9492C37.6119 21.9492 12.8398 46.7213 12.8398 77.2792C12.8398 107.837 37.6119 132.609 68.1698 132.609Z" stroke="#C2937B" strokeWidth="8.67" stroke-linecap="round" stroke-linejoin="round"/>
<path d="M16.25 107.09C7.28 107.09 0 99.8098 0 90.8398V63.0898C0 54.1198 7.28 46.8398 16.25 46.8398V107.09Z" fill="#C2937B"/>
<path d="M119.5 107.09C128.47 107.09 135.75 99.8098 135.75 90.8398V63.0898C135.75 54.1198 128.47 46.8398 119.5 46.8398V107.09Z" fill="#C2937B"/>
<path d="M9.25 62.7098C9.25 30.4698 35.89 4.33984 68.75 4.33984C101.61 4.33984 128.25 30.4798 128.25 62.7198" stroke="#C2937B" strokeWidth="8.67" stroke-linecap="round" stroke-linejoin="round"/>
</g>
<defs>
<clipPath id="clip0_1_11138">
<rect width="135.75" height="136.95" fill="white"/>
</clipPath>
</defs>
</svg>
