<svg width="17" height="28" viewBox="0 0 17 28" fill="none" xmlns="http://www.w3.org/2000/svg">
<path d="M16.9778 10.5498C16.947 10.0256 16.5085 9.62364 15.9931 9.65123C15.4815 9.68276 15.0891 10.132 15.1161 10.6601C15.1584 11.3931 15.1584 12.9261 14.9353 14.3724C14.5122 14.069 13.9967 13.8877 13.439 13.8877H9.43087V13.2966C12.5966 13.1901 14.2314 12.5044 14.2891 11.2591C14.3583 10.6286 14.9314 4.69754 12.3504 1.71429C11.3695 0.575369 10.0732 0 8.50385 0C6.93446 0 5.63817 0.575369 4.65345 1.71429C2.07242 4.69754 2.64555 10.6286 2.71479 11.2591C2.77249 12.5044 4.40727 13.1862 7.57298 13.2966V13.8877H3.56488C3.01098 13.8877 2.49554 14.069 2.07242 14.3724C1.84932 12.9261 1.84932 11.3931 1.88778 10.6601C1.91856 10.136 1.52621 9.68276 1.01077 9.65123C0.491487 9.6197 0.0568273 10.0217 0.0260549 10.5498C-0.00471745 11.0739 -0.220124 15.7478 1.40697 18.065C1.41851 18.0847 1.43389 18.1005 1.44928 18.1163C1.9224 18.7862 2.69171 19.2276 3.56103 19.2276H7.56914V24.6305H5.39199C4.27264 24.6305 3.36101 25.5645 3.36101 26.7113V27.0581C3.36101 27.5665 3.7649 27.9803 4.2611 27.9803C4.75731 27.9803 5.1612 27.5665 5.1612 27.0581V26.7113C5.1612 26.5813 5.26505 26.4749 5.39199 26.4749H7.59991V27.0778C7.59991 27.5862 8.0038 28 8.5 28C8.99621 28 9.40009 27.5862 9.40009 27.0778V26.4749H11.608C11.7349 26.4749 11.8388 26.5813 11.8388 26.7113V27.0581C11.8388 27.5665 12.2427 27.9803 12.7389 27.9803C13.2351 27.9803 13.639 27.5665 13.639 27.0581V26.7113C13.639 25.5645 12.7274 24.6305 11.608 24.6305H9.43087V19.2276H13.439C14.3083 19.2276 15.0776 18.7901 15.5507 18.1163C15.5661 18.1005 15.5815 18.0808 15.593 18.065C17.2201 15.7478 17.0047 11.0739 16.9739 10.5498H16.9778ZM6.04975 2.97931C6.67289 2.25813 7.47682 1.90739 8.50385 1.90739C9.53088 1.90739 10.3348 2.25813 10.9579 2.97931C12.8543 5.1665 12.5427 9.89557 12.4543 10.8887C12.0004 11.1172 10.5848 11.401 8.50385 11.401C6.42286 11.401 5.00349 11.1172 4.5496 10.8887C4.38035 9.18227 4.35342 4.93793 6.0459 2.98325L6.04975 2.97931ZM3.56488 17.3202C3.1533 17.3202 2.81865 16.9773 2.81865 16.5557C2.81865 16.134 3.1533 15.7911 3.56488 15.7911H13.4428C13.8544 15.7911 14.189 16.134 14.189 16.5557C14.189 16.9773 13.8544 17.3202 13.4428 17.3202H3.56488Z" fill="#C2937B"/>
</svg>
